# xmcd
#
# Track frame offsets:
#	150
#	22465
#	38549
#	52555
#	73182
#	97645
#	122149
#	141892
#	163771
#	183350
#	205012
#	227219
#	247805
#	266749
#	288714
#	305147
#	321712
#
# Disc length: 4579 seconds
# Revision: 1
# Processed by: cddbd v1.5.2PL0 Copyright (c) Steve Scherf et al.
# Submitted via: dBpowerAMP V12.0
#
DISCID=fb11e111
DTITLE=Colin James - Take It From The Top: The Best Of Colin James
DYEAR=2011
DGENRE=Blues\Rock
TTITLE0=Just Came Back
TTITLE1=Man's Gotta Be A Stone
TTITLE2=It's Gonna Be Alright
TTITLE3=Five Long Years
TTITLE4=Why'd You Lie
TTITLE5=Freedom
TTITLE6=Into The Mystic
TTITLE7=National Steel
TTITLE8=Real Stuff
TTITLE9=Hide
TTITLE10=I'm Losing You
TTITLE11=I Hope You're Happy
TTITLE12=Them Changes
TTITLE13=Make A Mistake
TTITLE14=Voodoo Thing
TTITLE15=Keep On Loving Me Baby
TTITLE16=Stay
EXTD=
EXTT0=
EXTT1=
EXTT2=
EXTT3=
EXTT4=
EXTT5=
EXTT6=
EXTT7=
EXTT8=
EXTT9=
EXTT10=
EXTT11=
EXTT12=
EXTT13=
EXTT14=
EXTT15=
EXTT16=
PLAYORDER=
